<svg id="Calque_1" data-name="Calque 1" xmlns="http://www.w3.org/2000/svg" viewBox="0 0 896 896"><defs><style>.cls-1{fill:#fff;}</style></defs><title>logo-brand-round-2</title><path class="cls-1" d="M960,279h0a44.47,44.47,0,0,0-44.47,44.47h0A44.47,44.47,0,0,0,960,368h0a44.47,44.47,0,0,0,44.47-44.47h0A44.47,44.47,0,0,0,960,279Z" transform="translate(-512 -92)"/><path class="cls-1" d="M1372.78,365.61A449.35,449.35,0,1,0,1408,540,446.24,446.24,0,0,0,1372.78,365.61ZM685.89,809.14l73.62-119.9H864.2v223A384.45,384.45,0,0,1,685.89,809.14Zm46.72-176,66.6-59.29,64.7-57.53.29,116.82H732.61ZM960,924.36c-11.19,0-22.26-.51-33.2-1.45V569.82l61.06,123.42h62.48v-151l181.33,269.38C1162.07,881.24,1066,924.36,960,924.36Zm313.46-162.17L1050.38,430.32H987.86v122l-60.38-122H864.2v.93L645.71,629.12v58.56l1.27,1.56h49.13l-49.48,73.08a382.27,382.27,0,0,1-71-222.32c0-211.93,172.42-384.36,384.36-384.36S1344.36,328.07,1344.36,540A382.24,382.24,0,0,1,1273.46,762.19Z" transform="translate(-512 -92)"/></svg>